<svg xmlns="http://www.w3.org/2000/svg" viewBox="0 0 405.01 405.49"><defs><style>.a{fill:#fff;}.b{font-size:200px;font-family:Merriweather-Black, Merriweather;font-weight:800;letter-spacing:-0.1em;}</style></defs><title>d04_04</title><line class="a" x1="197.5" y1="1.49" x2="1.5" y2="349.49"/><path d="M377.7,86.24l-19.45,34.54-46.73,83-56.8,100.86-48.9,86.81L189.7,420c-2.44,4.33-5.93,8.92-7.66,13.6a3.56,3.56,0,0,1-.34.6c-.94,1.69,1.65,3.2,2.6,1.52l19.45-34.54,46.73-83,56.8-100.86,48.9-86.81L372.3,102c2.44-4.33,5.93-8.92,7.66-13.6a3.56,3.56,0,0,1,.34-.6c.94-1.69-1.65-3.2-2.6-1.52Z" transform="translate(-181.5 -85.51)"/><line class="a" x1="197.5" y1="1.49" x2="403.5" y2="351.49"/><path d="M377.7,87.76l20.47,34.76L447.31,206l59.48,101.06,51.46,87.43,17.1,29c2.54,4.33,4.78,9.69,8,13.58a4.89,4.89,0,0,1,.36.63,1.51,1.51,0,0,0,2.6-1.52l-20.47-34.76L516.69,318,457.21,216.92l-51.46-87.43-17.1-29c-2.54-4.33-4.78-9.69-8-13.58a4.89,4.89,0,0,1-.36-.63,1.51,1.51,0,0,0-2.6,1.52Z" transform="translate(-181.5 -85.51)"/><line class="a" x1="1.5" y1="349.49" x2="403.5" y2="351.49"/><path d="M183,436.5l40,.2,96.13.48,115.76.57,100.53.5,33.14.17c5,0,10.77.87,15.73.08a3.86,3.86,0,0,1,.68,0,1.5,1.5,0,0,0,0-3l-40-.2-96.13-.48-115.76-.57-100.53-.5-33.14-.17c-5,0-10.77-.87-15.73-.08a3.86,3.86,0,0,1-.68,0,1.5,1.5,0,0,0,0,3Z" transform="translate(-181.5 -85.51)"/><text class="b" transform="translate(135.4 297.49)">4</text></svg>