<svg xmlns="http://www.w3.org/2000/svg" viewBox="0 0 703.07 703.16"><defs><style>.a{fill:#fff;}.b{font-size:500px;font-family:Merriweather-Black, Merriweather;font-weight:800;letter-spacing:-0.1em;}</style></defs><title>d06_06</title><rect class="a" x="1.53" y="1.53" width="700" height="700" rx="13.2"/><path d="M720.8,732.5H124.3c-25.51,0-51.21.92-76.71,0C33.94,732,35.5,719.33,35.5,710V50c0-7.26,3.19-14.1,11.71-14.49,1.71-.08,3.44,0,5.15,0H713.51c2.33,0,4.68-.09,7,0,7.71.29,11.88,6.09,12,13.22.13,9.23,0,18.47,0,27.7V707c0,9.67,2.38,24.78-11.7,25.49-1.92.1-1.93,3.1,0,3,9.23-.47,14.64-7.49,14.7-16.28,0-3.37,0-6.74,0-10.12V75.55c0-9.06.1-18.12,0-27.18-.1-8.66-5.76-15.5-14.73-15.87-1.87-.08-3.76,0-5.63,0H51.7a52.16,52.16,0,0,0-6.25.12c-8.56,1-12.9,8.38-13,16.33-.06,9.75,0,19.5,0,29.25V710.77c0,3,0,6,0,9,.11,8.63,5.9,15.33,14.77,15.69,6.9.28,13.88,0,20.78,0H720.8A1.5,1.5,0,0,0,720.8,732.5Z" transform="translate(-32.47 -32.47)"/><text class="b" transform="translate(196.78 501.16)">6</text></svg>