<svg xmlns="http://www.w3.org/2000/svg" viewBox="0 0 405.06 524"><defs><style>.a{fill:#fff;}.b{font-size:200px;font-family:Merriweather-Black, Merriweather;font-weight:800;letter-spacing:-0.1em;}</style></defs><title>d08_02</title><polygon class="a" points="197.55 1.52 1.55 349.52 14.55 108.52 197.55 1.52"/><path d="M377.7,86.24l-19.45,34.54-46.73,83-56.8,100.86-48.9,86.81L189.7,420l-5,8.86c-.69,1.23-2.49,3.32-2.67,4.74a2,2,0,0,1-.34.6l2.8.76,4-73.35,6.73-124.83,2-37.85a21.57,21.57,0,0,0,.21-3.85c-.25-1.89.68-.22-.63.15,2.16-.6,4.54-2.66,6.45-3.78l93.62-54.74c27.14-15.87,54.5-31.42,81.45-47.62l1.43-.83a1.51,1.51,0,0,0-1.52-2.6l-70.09,41L207.62,185.47c-3.62,2.11-7.27,4.19-10.86,6.35-1.47.88-2,1.25-2.3,3-.6,3.14-.36,6.68-.53,9.86l-1,18.65-6.6,122.27-3.07,57.06c-.56,10.26-1.65,20.66-1.67,30.94,0,.48-.05,1-.08,1.45a1.52,1.52,0,0,0,2.8.76l19.45-34.54,46.73-83,56.8-100.86,48.9-86.81L372.3,102c2.44-4.33,5.93-8.92,7.66-13.6a3.56,3.56,0,0,1,.34-.6C381.24,86.07,378.65,84.56,377.7,86.24Z" transform="translate(-181.45 -85.48)"/><polygon class="a" points="197.55 1.52 403.55 351.52 375.55 108.52 197.55 1.52"/><path d="M377.7,87.76l20.47,34.76L447.31,206l59.48,101.06,51.46,87.43,17.1,29c2.56,4.37,4.82,9.62,8,13.58a4.89,4.89,0,0,1,.36.63c.71,1.19,3,.78,2.8-.76l-8.42-73.07L563.6,238.29l-4.44-38.58c-.2-1.69,0-4.11-.66-5.71-.76-1.94-3.31-2.84-5.07-3.9l-89.81-54c-27.46-16.51-54.73-33.41-82.42-49.55-.49-.28-1-.58-1.44-.87a1.51,1.51,0,0,0-1.52,2.6l69,41.5,98.06,58.94c3.12,1.88,6.46,4.61,9.86,5.93,1.71.66.21,1,.31-.6a12.63,12.63,0,0,0,.23,2l3.65,31.69,14.07,122.06,6.43,55.84,2.22,19.25c.38,3.32.21,7.44,1.23,10.64a8.46,8.46,0,0,1,.16,1.43l2.8-.76-20.47-34.76L516.69,318,457.21,216.92l-51.46-87.43-17.1-29c-2.54-4.33-4.78-9.69-8-13.58a4.89,4.89,0,0,1-.36-.63A1.51,1.51,0,0,0,377.7,87.76Z" transform="translate(-181.45 -85.48)"/><polygon class="a" points="1.55 349.52 403.55 351.52 197.55 522.52 1.55 349.52"/><path d="M183,436.5l40,.2,96.13.48,115.76.57,100.53.5,33.14.17,10.32.05c1.38,0,4.11.56,5.41,0a2.21,2.21,0,0,1,.68,0l-1.06-2.56-69.72,57.87-111,92.13-25.29,21h2.12l-66.35-58.56-105.6-93.21-24.05-21.23c-1.44-1.27-3.57.84-2.12,2.12l66.35,58.56,105.6,93.21,24.05,21.23a1.55,1.55,0,0,0,2.12,0l69.72-57.87,111-92.13,25.29-21c1-.86.16-2.55-1.06-2.56l-40-.2-96.13-.48-115.76-.57-100.53-.5-33.14-.17c-5,0-10.77-.87-15.73-.08a3.86,3.86,0,0,1-.68,0A1.5,1.5,0,0,0,183,436.5Z" transform="translate(-181.45 -85.48)"/><text class="b" transform="translate(141.65 297.52)">2</text></svg>