<svg xmlns="http://www.w3.org/2000/svg" viewBox="0 0 623.21 718.05"><defs><style>.a{fill:#fff;}.b{font-size:200px;font-family:Merriweather-Black, Merriweather;font-weight:800;letter-spacing:-0.1em;}</style></defs><title>d20_09</title><polygon class="a" points="608.52 522.5 313.52 716.5 14.52 531.5 1.52 176.5 313.52 1.5 621.52 180.5 608.52 522.5"/><path d="M691.24,548.7l-60.93,40.08L506.53,670.17l-98.06,64.5-10.09,6.63c-.49.32-1.66.8-2,1.3.48-.76,1.52.91.82-.23-1.13-1.82-5.81-3.59-7.59-4.69l-15.46-9.57L264,659.91,143,585.05l-36.66-22.68c-1.42-.88-5.38-4.44-7.11-4.41-1,0,.15,1.1.31.74a8.07,8.07,0,0,0-.09-2.54l-3.45-94-5.5-150.41L86.71,209.7c-.06-1.59.35-4.17-.21-5.69.53,1.44-1.67,1.41.4.64a24.65,24.65,0,0,0,3.32-1.86l32.63-18.3L243.5,116.82,362.7,50l31.46-17.65c.78-.43,2.3-.93,2.88-1.61,1.06-1.25.49,1.07-.7-.35,1.18,1.42,4.24,2.47,5.81,3.38l90.23,52.44,130,75.52,79.79,46.38c.49.28,1.38,1.07,2,1.13-1-.11,0-1.71-.61-.55-1.07,1.91-.27,7-.35,9.14l-1.69,44.4L696,405.85l-4.73,124.43L690.5,550c-.07,1.93,2.93,1.93,3,0l1.3-34.11,3.09-81.41,3.76-99,3.24-85.19L706,221.94c.16-4.17,1.13-9.19.51-13.34a3,3,0,0,1,0-.6,1.51,1.51,0,0,0-.74-1.3l-30.94-18-74.17-43.11-89.48-52L434.33,49l-24.94-14.5c-3.47-2-7.47-5.35-11.31-6.57-2.24-.71-4.44,1.27-6.42,2.38L372.4,41.08,301.89,80.63,212.06,131l-81.49,45.71L86.29,201.56l-2.05,1.14a1.5,1.5,0,0,0-.74,1.3l1.29,35.27L87.89,324l3.76,102.53,3.25,88.67L96,544.45c.16,4.44-.36,9.56.51,13.93.46,2.35,2.52,3,4.53,4.25l17.68,10.93,67.23,41.6,86.62,53.59,78.57,48.62L394.22,744l2,1.26a1.53,1.53,0,0,0,1.52,0L427.11,726l70.5-46.36,85.26-56.07,73.39-48.26,24.45-16.08c3.68-2.42,8.25-4.62,11.52-7.58a3.67,3.67,0,0,1,.53-.34C694.36,550.24,692.86,547.64,691.24,548.7Z" transform="translate(-83.48 -27.5)"/><polygon class="a" points="313.52 1.5 313.52 134.5 1.52 176.5 313.52 1.5"/><path d="M395.5,29V162l1.1-1.45L290.75,174.8,123.22,197.36,84.6,202.55l1.16,2.75,31.12-17.46,74.29-41.67,90.28-50.64,77.73-43.6L385,37.47c3.86-2.16,8.82-4,12.26-6.87a2.58,2.58,0,0,1,.54-.3c1.68-.95.17-3.54-1.52-2.6L365.12,45.16,290.83,86.83l-90.28,50.64-77.73,43.6L97,195.53c-3.86,2.16-8.82,4.05-12.26,6.87a2.58,2.58,0,0,1-.54.3c-1.61.91-.41,3,1.16,2.75L191.25,191.2l167.53-22.56,38.62-5.19a1.51,1.51,0,0,0,1.1-1.45V29A1.5,1.5,0,0,0,395.5,29Z" transform="translate(-83.48 -27.5)"/><polygon class="a" points="117.52 482.5 1.52 176.5 14.52 531.5 117.52 482.5"/><path d="M202.45,509.6,163.11,405.82,100.81,241.5,86.45,203.6c-.57-1.48-3-1.41-3,.4l1.29,35.27L87.89,324l3.76,102.53,3.25,88.67L96,544.45c.16,4.43-.36,9.56.51,13.93a4.24,4.24,0,0,1,0,.62,1.52,1.52,0,0,0,2.26,1.3l90.14-42.89,12.86-6.11c1.74-.83.22-3.42-1.52-2.6L110.1,551.59,97.24,557.7,99.5,559l-1.29-35.27L95.11,439,91.35,336.48,88.1,247.81,87,218.55l-.33-9.13c0-1.22.34-3.66-.18-4.8a2.13,2.13,0,0,1,0-.62l-3,.4,39.34,103.78,62.3,164.32,14.36,37.9C200.23,512.19,203.13,511.41,202.45,509.6Z" transform="translate(-83.48 -27.5)"/><polygon class="a" points="313.52 134.5 117.52 482.5 1.52 176.5 313.52 134.5"/><path d="M395.7,161.24l-19.45,34.54-46.73,83-56.8,100.86-48.9,86.81L207.7,495l-5,8.86c-.68,1.21-2.51,3.34-2.67,4.74a2,2,0,0,1-.34.6l2.75.36L163.11,405.82,100.81,241.5,86.45,203.6l-1,1.85L191.25,191.2l167.53-22.56,38.62-5.19c1.9-.26,1.09-3.15-.8-2.9L290.75,174.8,123.22,197.36,84.6,202.55a1.52,1.52,0,0,0-1,1.85l39.34,103.78,62.3,164.32,14.36,37.9a1.53,1.53,0,0,0,2.75.36l19.45-34.54,46.73-83,56.8-100.86,48.9-86.81L390.3,177c2.44-4.33,5.93-8.92,7.66-13.6a3.56,3.56,0,0,1,.34-.6C399.24,161.07,396.65,159.56,395.7,161.24Z" transform="translate(-83.48 -27.5)"/><polygon class="a" points="621.52 180.5 313.52 134.5 313.52 1.5 621.52 180.5"/><path d="M705.4,206.55,601,191,435.59,166.26l-38.19-5.71,1.1,1.45V29l-2.26,1.3,30.67,17.82L500.53,90.9l88.63,51.51,77,44.77L691.71,202c3.79,2.2,7.87,5.44,12,7a4.15,4.15,0,0,1,.53.32,1.51,1.51,0,0,0,1.52-2.6l-30.67-17.82L601.47,146.1,512.84,94.59l-77-44.77L410.29,35c-3.79-2.2-7.87-5.44-12-7a4.15,4.15,0,0,1-.53-.32A1.52,1.52,0,0,0,395.5,29V162a1.52,1.52,0,0,0,1.1,1.45l104.45,15.6,165.36,24.69,38.19,5.71C706.49,209.73,707.3,206.84,705.4,206.55Z" transform="translate(-83.48 -27.5)"/><polygon class="a" points="519.52 484.5 621.52 180.5 608.52 522.5 519.52 484.5"/><path d="M604.45,512.4l34.56-103,54.87-163.52,12.57-37.46-3-.4-1.3,34.11-3.09,81.41-3.76,99-3.24,85.19L691,536.06l-.33,8.74c0,1.09-.63,3.59-.18,4.6a1.75,1.75,0,0,1,0,.6l2.26-1.3L615,515.52l-11.27-4.82c-1.76-.74-3.29,1.84-1.52,2.6L680,546.48l11.27,4.82a1.53,1.53,0,0,0,2.26-1.3l1.3-34.11,3.09-81.41,3.76-99,3.24-85.19L706,221.94c.16-4.17,1.13-9.19.51-13.34a3,3,0,0,1,0-.6c.07-1.75-2.43-1.95-3-.4L669,310.62,614.12,474.14,601.55,511.6C600.94,513.44,603.83,514.22,604.45,512.4Z" transform="translate(-83.48 -27.5)"/><polygon class="a" points="313.52 134.5 519.52 484.5 621.52 180.5 313.52 134.5"/><path d="M395.7,162.76l20.47,34.76L465.31,281l59.48,101.06,51.46,87.43,17.1,29c2.54,4.33,4.78,9.69,8,13.58a4.89,4.89,0,0,1,.36.63,1.53,1.53,0,0,0,2.75-.36l34.56-103,54.87-163.52,12.57-37.46a1.52,1.52,0,0,0-1.05-1.85L601,191,435.59,166.26l-38.19-5.71c-1.89-.28-2.7,2.61-.8,2.9l104.45,15.6,165.36,24.69,38.19,5.71-1.05-1.85L669,310.62,614.12,474.14,601.55,511.6l2.75-.36-20.47-34.76L534.69,393,475.21,291.92l-51.46-87.43-17.1-29c-2.54-4.33-4.78-9.69-8-13.58a4.89,4.89,0,0,1-.36-.63A1.51,1.51,0,0,0,395.7,162.76Z" transform="translate(-83.48 -27.5)"/><polygon class="a" points="117.52 482.5 313.52 716.5 14.52 531.5 117.52 482.5"/><path d="M199.94,511.06l66.41,79.29L371.77,716.2l24.17,28.86,1.82-2.36-29.7-18.37L296.73,680.2,210.4,626.78l-74.69-46.21-24.66-15.26-7.75-4.8c-1-.6-2.85-2.35-4-2.47-.16,0-.39-.25-.53-.34v2.6l90.14-42.89,12.86-6.11c1.74-.83.22-3.42-1.52-2.6L110.1,551.59,97.24,557.7a1.52,1.52,0,0,0,0,2.6l29.7,18.37,71.33,44.13,86.33,53.42,74.69,46.21L384,737.69c3.73,2.3,7.68,5.61,11.76,7.27a4.32,4.32,0,0,1,.53.34c1.53.94,2.86-1.12,1.82-2.36l-66.41-79.29L226.23,537.8l-24.17-28.86C200.82,507.46,198.71,509.59,199.94,511.06Z" transform="translate(-83.48 -27.5)"/><polygon class="a" points="519.52 484.5 313.52 716.5 608.52 522.5 519.52 484.5"/><path d="M601.94,510.94l-69.72,78.52-111,125-25.29,28.48c-1.07,1.21.32,3.34,1.82,2.36L427.11,726l70.5-46.36,85.26-56.07,73.39-48.26,24.45-16.08c3.68-2.42,8.25-4.62,11.52-7.58a3.67,3.67,0,0,1,.53-.34c.83-.55,1.11-2.12,0-2.6L615,515.52l-11.27-4.82c-1.76-.74-3.29,1.84-1.52,2.6L680,546.48l11.27,4.82v-2.6L661.89,568l-70.5,46.36-85.26,56.07L432.74,718.7l-24.45,16.08-7.49,4.93c-1.05.69-3.32,1.61-4,2.65a1.93,1.93,0,0,1-.53.34l1.82,2.36,69.72-78.52,111-125,25.29-28.48C605.34,511.62,603.22,509.49,601.94,510.94Z" transform="translate(-83.48 -27.5)"/><polygon class="a" points="117.52 482.5 519.52 484.5 313.52 716.5 117.52 482.5"/><path d="M201,511.5l40,.2,96.13.48,115.76.57,100.53.5,33.14.17,10.32.05c1.38,0,4.11.56,5.41,0a2.21,2.21,0,0,1,.68,0l-1.06-2.56-69.72,78.52-111,125-25.29,28.48h2.12l-66.41-79.29L226.23,537.8l-24.17-28.86c-1.24-1.48-3.35.65-2.12,2.12l66.41,79.29L371.77,716.2l24.17,28.86a1.5,1.5,0,0,0,2.12,0l69.72-78.52,111-125,25.29-28.48A1.52,1.52,0,0,0,603,510.5l-40-.2-96.13-.48-115.76-.57-100.53-.5-33.14-.17c-5,0-10.77-.87-15.73-.08a3.86,3.86,0,0,1-.68,0A1.5,1.5,0,0,0,201,511.5Z" transform="translate(-83.48 -27.5)"/><text class="b" transform="translate(247.82 430.5)">9</text></svg>
